<svg width="135" height="140" viewBox="0 0 135 140" fill="none" xmlns="http://www.w3.org/2000/svg">
<rect x="1.5" y="29.5" width="132" height="109" rx="16.5" fill="white" stroke="#D48C00" stroke-width="3"/>
<path d="M27.48 98.2C26.2267 98.2 25.14 97.9267 24.22 97.38C23.3133 96.82 22.6067 96.0333 22.1 95.02C21.6067 94.0067 21.36 92.8 21.36 91.4C21.36 90 21.62 88.7933 22.14 87.78C22.6733 86.7667 23.4133 85.9867 24.36 85.44C25.3067 84.88 26.3933 84.6 27.62 84.6C28.9267 84.6 29.9867 84.8467 30.8 85.34C31.6267 85.8333 32.2933 86.5933 32.8 87.62L31.34 88.42C31.0467 87.66 30.58 87.0867 29.94 86.7C29.3133 86.3 28.54 86.1 27.62 86.1C26.7267 86.1 25.9333 86.3133 25.24 86.74C24.56 87.1533 24.02 87.76 23.62 88.56C23.2333 89.3467 23.04 90.2933 23.04 91.4C23.04 93.0533 23.42 94.3533 24.18 95.3C24.9533 96.2333 26.0733 96.7 27.54 96.7C28.2733 96.7 28.9333 96.58 29.52 96.34C30.1067 96.0867 30.5733 95.7067 30.92 95.2C31.2667 94.6933 31.44 94.06 31.44 93.3V92.84H27.24V91.34H32.9V98H31.64L31.58 96.22C31.18 96.86 30.6333 97.3533 29.94 97.7C29.26 98.0333 28.44 98.2 27.48 98.2ZM41.7727 91.54C41.7727 90.7933 41.5727 90.22 41.1727 89.82C40.7727 89.4067 40.206 89.2 39.4727 89.2C38.7793 89.2 38.1927 89.3533 37.7127 89.66C37.2327 89.9533 36.8793 90.4333 36.6527 91.1L35.3527 90.3C35.6193 89.5533 36.1127 88.9533 36.8327 88.5C37.5527 88.0333 38.446 87.8 39.5127 87.8C40.2327 87.8 40.886 87.9267 41.4727 88.18C42.0593 88.42 42.5193 88.7933 42.8527 89.3C43.1993 89.7933 43.3727 90.4333 43.3727 91.22V96.06C43.3727 96.54 43.626 96.78 44.1327 96.78C44.386 96.78 44.6327 96.7467 44.8727 96.68L44.7927 97.94C44.526 98.0733 44.1793 98.14 43.7527 98.14C43.2593 98.14 42.8327 98.02 42.4727 97.78C42.126 97.54 41.8993 97.1733 41.7927 96.68C41.446 97.2 40.9727 97.5867 40.3727 97.84C39.7727 98.08 39.1793 98.2 38.5927 98.2C38.006 98.2 37.4593 98.1 36.9527 97.9C36.446 97.7 36.0393 97.4 35.7327 97C35.4393 96.5867 35.2927 96.08 35.2927 95.48C35.2927 94.7333 35.5393 94.12 36.0327 93.64C36.5393 93.1467 37.2393 92.8133 38.1327 92.64L41.7727 91.92V91.54ZM36.9327 95.4C36.9327 95.8133 37.0927 96.1533 37.4127 96.42C37.746 96.6733 38.2127 96.8 38.8127 96.8C39.3327 96.8 39.8127 96.7133 40.2527 96.54C40.706 96.3533 41.0727 96.08 41.3527 95.72C41.6327 95.3467 41.7727 94.8733 41.7727 94.3V93.24L38.8727 93.84C38.2193 93.9733 37.7327 94.16 37.4127 94.4C37.0927 94.64 36.9327 94.9733 36.9327 95.4ZM48.3808 83.4V95.46C48.3808 95.9667 48.4741 96.32 48.6608 96.52C48.8474 96.7067 49.1474 96.8 49.5608 96.8C49.8274 96.8 50.0474 96.78 50.2208 96.74C50.3941 96.7 50.6274 96.6267 50.9208 96.52L50.6608 97.92C50.2208 98.1067 49.7274 98.2 49.1808 98.2C47.5808 98.2 46.7808 97.3067 46.7808 95.52V83.4H48.3808ZM63.9073 98.2C62.654 98.2 61.5673 97.9267 60.6473 97.38C59.7407 96.82 59.034 96.0333 58.5273 95.02C58.034 94.0067 57.7873 92.8 57.7873 91.4C57.7873 90 58.0473 88.7933 58.5673 87.78C59.1007 86.7667 59.8407 85.9867 60.7873 85.44C61.734 84.88 62.8207 84.6 64.0473 84.6C65.354 84.6 66.414 84.8467 67.2273 85.34C68.054 85.8333 68.7207 86.5933 69.2273 87.62L67.7673 88.42C67.474 87.66 67.0073 87.0867 66.3673 86.7C65.7407 86.3 64.9673 86.1 64.0473 86.1C63.154 86.1 62.3607 86.3133 61.6673 86.74C60.9873 87.1533 60.4473 87.76 60.0473 88.56C59.6607 89.3467 59.4673 90.2933 59.4673 91.4C59.4673 93.0533 59.8473 94.3533 60.6073 95.3C61.3807 96.2333 62.5007 96.7 63.9673 96.7C64.7007 96.7 65.3607 96.58 65.9473 96.34C66.534 96.0867 67.0007 95.7067 67.3473 95.2C67.694 94.6933 67.8673 94.06 67.8673 93.3V92.84H63.6673V91.34H69.3273V98H68.0673L68.0073 96.22C67.6073 96.86 67.0607 97.3533 66.3673 97.7C65.6873 98.0333 64.8673 98.2 63.9073 98.2ZM78.2 91.54C78.2 90.7933 78 90.22 77.6 89.82C77.2 89.4067 76.6333 89.2 75.9 89.2C75.2067 89.2 74.62 89.3533 74.14 89.66C73.66 89.9533 73.3067 90.4333 73.08 91.1L71.78 90.3C72.0467 89.5533 72.54 88.9533 73.26 88.5C73.98 88.0333 74.8733 87.8 75.94 87.8C76.66 87.8 77.3133 87.9267 77.9 88.18C78.4867 88.42 78.9467 88.7933 79.28 89.3C79.6267 89.7933 79.8 90.4333 79.8 91.22V96.06C79.8 96.54 80.0533 96.78 80.56 96.78C80.8133 96.78 81.06 96.7467 81.3 96.68L81.22 97.94C80.9533 98.0733 80.6067 98.14 80.18 98.14C79.6867 98.14 79.26 98.02 78.9 97.78C78.5533 97.54 78.3267 97.1733 78.22 96.68C77.8733 97.2 77.4 97.5867 76.8 97.84C76.2 98.08 75.6067 98.2 75.02 98.2C74.4333 98.2 73.8867 98.1 73.38 97.9C72.8733 97.7 72.4667 97.4 72.16 97C71.8667 96.5867 71.72 96.08 71.72 95.48C71.72 94.7333 71.9667 94.12 72.46 93.64C72.9667 93.1467 73.6667 92.8133 74.56 92.64L78.2 91.92V91.54ZM73.36 95.4C73.36 95.8133 73.52 96.1533 73.84 96.42C74.1733 96.6733 74.64 96.8 75.24 96.8C75.76 96.8 76.24 96.7133 76.68 96.54C77.1333 96.3533 77.5 96.08 77.78 95.72C78.06 95.3467 78.2 94.8733 78.2 94.3V93.24L75.3 93.84C74.6467 93.9733 74.16 94.16 73.84 94.4C73.52 94.64 73.36 94.9733 73.36 95.4ZM87.1881 98.2C86.3615 98.2 85.6015 97.9933 84.9081 97.58C84.2148 97.1667 83.6615 96.5733 83.2481 95.8C82.8348 95.0133 82.6281 94.08 82.6281 93C82.6281 91.8933 82.8481 90.9533 83.2881 90.18C83.7281 89.4067 84.3081 88.82 85.0281 88.42C85.7481 88.0067 86.5215 87.8 87.3481 87.8C88.0681 87.8 88.7081 87.9667 89.2681 88.3C89.8281 88.62 90.2415 89.06 90.5081 89.62V83.4H92.1081V98H90.7081L90.6081 96.12C90.3281 96.8 89.8748 97.32 89.2481 97.68C88.6215 98.0267 87.9348 98.2 87.1881 98.2ZM87.3481 96.8C88.2948 96.8 89.0548 96.4467 89.6281 95.74C90.2148 95.0333 90.5081 94.0733 90.5081 92.86C90.5081 91.7133 90.2215 90.82 89.6481 90.18C89.0748 89.5267 88.3348 89.2 87.4281 89.2C86.4148 89.2 85.6281 89.5467 85.0681 90.24C84.5081 90.9333 84.2281 91.8533 84.2281 93C84.2281 94.1467 84.5015 95.0667 85.0481 95.76C85.5948 96.4533 86.3615 96.8 87.3481 96.8ZM99.5672 87.8C100.514 87.8 101.347 88.0067 102.067 88.42C102.801 88.8333 103.374 89.4333 103.787 90.22C104.201 90.9933 104.407 91.92 104.407 93C104.407 94.08 104.201 95.0133 103.787 95.8C103.374 96.5733 102.801 97.1667 102.067 97.58C101.347 97.9933 100.514 98.2 99.5672 98.2C98.6339 98.2 97.8005 97.9933 97.0672 97.58C96.3339 97.1667 95.7605 96.5733 95.3472 95.8C94.9339 95.0133 94.7272 94.08 94.7272 93C94.7272 91.92 94.9339 90.9933 95.3472 90.22C95.7605 89.4333 96.3339 88.8333 97.0672 88.42C97.8005 88.0067 98.6339 87.8 99.5672 87.8ZM99.5672 89.18C98.5539 89.18 97.7605 89.52 97.1872 90.2C96.6139 90.88 96.3272 91.8133 96.3272 93C96.3272 94.1867 96.6139 95.12 97.1872 95.8C97.7605 96.48 98.5539 96.82 99.5672 96.82C100.581 96.82 101.374 96.48 101.947 95.8C102.521 95.12 102.807 94.1867 102.807 93C102.807 91.8133 102.521 90.88 101.947 90.2C101.374 89.52 100.581 89.18 99.5672 89.18ZM112.844 88V89.38H109.204V95.24C109.204 95.7333 109.344 96.1 109.624 96.34C109.904 96.58 110.264 96.7 110.704 96.7C111.09 96.7 111.424 96.6333 111.704 96.5C111.984 96.3667 112.237 96.1867 112.464 95.96L113.024 97.3C112.717 97.58 112.35 97.8 111.924 97.96C111.51 98.12 111.03 98.2 110.484 98.2C109.977 98.2 109.504 98.1133 109.064 97.94C108.624 97.7533 108.27 97.4667 108.004 97.08C107.75 96.68 107.617 96.16 107.604 95.52V89.38H105.604V88H107.604V85.6L109.204 85.16V88H112.844Z" fill="#D48C00"/>
<path d="M42.76 127V123.52H35.032V120.928C35.176 120.688 35.36 120.384 35.584 120.016C35.824 119.632 36.104 119.2 36.424 118.72L41.584 111.16H46.408V120.688H48.832V123.52H46.408V127H42.76ZM38.344 120.688H42.808V115.888C42.808 115.568 42.816 115.24 42.832 114.904C42.848 114.568 42.864 114.216 42.88 113.848H42.832C42.672 114.184 42.48 114.536 42.256 114.904C42.048 115.256 41.848 115.576 41.656 115.864L38.848 119.968C38.672 120.24 38.504 120.48 38.344 120.688ZM55.8996 127.24C54.5236 127.24 53.3236 126.976 52.2996 126.448C51.2916 125.904 50.4436 125.024 49.7556 123.808L53.3796 122.008C53.5556 122.648 53.8356 123.16 54.2196 123.544C54.6196 123.928 55.2116 124.12 55.9956 124.12C56.7316 124.12 57.3156 123.928 57.7476 123.544C58.1796 123.144 58.3956 122.568 58.3956 121.816C58.3956 120.36 57.5956 119.632 55.9956 119.632C54.8916 119.632 54.0436 119.944 53.4516 120.568L50.3316 119.992L51.3396 111.16H61.3236V114.352H54.3396L53.9316 117.52L53.8596 117.904H53.8836C54.2036 117.536 54.6516 117.256 55.2276 117.064C55.8036 116.872 56.4436 116.776 57.1476 116.776C58.1876 116.776 59.0756 116.984 59.8116 117.4C60.5636 117.816 61.1316 118.384 61.5156 119.104C61.9156 119.824 62.1156 120.648 62.1156 121.576C62.1156 122.872 61.8276 123.944 61.2516 124.792C60.6756 125.624 59.9156 126.24 58.9716 126.64C58.0276 127.04 57.0036 127.24 55.8996 127.24ZM66.0278 122.872C66.7798 122.872 67.3638 123.064 67.7798 123.448C68.2118 123.832 68.4278 124.368 68.4278 125.056C68.4278 125.728 68.2118 126.256 67.7798 126.64C67.3638 127.024 66.7798 127.216 66.0278 127.216C65.2758 127.216 64.6838 127.024 64.2518 126.64C63.8358 126.256 63.6278 125.728 63.6278 125.056C63.6278 124.368 63.8358 123.832 64.2518 123.448C64.6838 123.064 65.2758 122.872 66.0278 122.872ZM70.4688 127V124.36C72.2768 123.224 73.7328 122.192 74.8368 121.264C75.9568 120.32 76.7728 119.44 77.2848 118.624C77.7968 117.808 78.0528 117.032 78.0528 116.296C78.0528 115.688 77.8688 115.184 77.5008 114.784C77.1488 114.368 76.6208 114.16 75.9168 114.16C75.1648 114.16 74.5728 114.44 74.1408 115C73.7248 115.544 73.5088 116.344 73.4928 117.4L69.9648 116.32C69.9968 115.152 70.2768 114.168 70.8048 113.368C71.3488 112.552 72.0848 111.944 73.0128 111.544C73.9408 111.128 74.9968 110.92 76.1808 110.92C77.5728 110.92 78.7088 111.176 79.5888 111.688C80.4688 112.184 81.1168 112.824 81.5328 113.608C81.9488 114.376 82.1568 115.176 82.1568 116.008C82.1568 117.544 81.5728 118.944 80.4048 120.208C79.2368 121.456 77.5808 122.696 75.4368 123.928V123.952C75.8368 123.92 76.3408 123.896 76.9488 123.88C77.5728 123.864 78.1328 123.856 78.6288 123.856H82.3488V127H70.4688ZM91.0536 110.92C92.3176 110.92 93.4376 111.184 94.4136 111.712C95.4056 112.24 96.1176 113.144 96.5496 114.424L93.1896 116.008C93.0296 115.448 92.7496 115.008 92.3496 114.688C91.9656 114.352 91.4456 114.184 90.7896 114.184C89.8616 114.184 89.1256 114.6 88.5816 115.432C88.0376 116.248 87.7656 117.384 87.7656 118.84V119.224L87.8136 119.368C87.9896 118.888 88.2856 118.48 88.7016 118.144C89.1176 117.808 89.5896 117.56 90.1176 117.4C90.6456 117.224 91.1736 117.136 91.7016 117.136C92.6776 117.136 93.5496 117.328 94.3176 117.712C95.0856 118.096 95.6856 118.648 96.1176 119.368C96.5656 120.088 96.7896 120.944 96.7896 121.936C96.7896 123.024 96.5416 123.968 96.0456 124.768C95.5496 125.552 94.8536 126.16 93.9576 126.592C93.0776 127.024 92.0376 127.24 90.8376 127.24C89.4776 127.24 88.2776 126.944 87.2376 126.352C86.2136 125.744 85.4136 124.848 84.8376 123.664C84.2776 122.464 83.9976 120.984 83.9976 119.224C83.9976 117.352 84.3096 115.8 84.9336 114.568C85.5576 113.336 86.3976 112.424 87.4536 111.832C88.5256 111.224 89.7256 110.92 91.0536 110.92ZM90.7656 119.92C90.1256 119.92 89.5896 120.112 89.1576 120.496C88.7256 120.864 88.5096 121.376 88.5096 122.032C88.5096 122.656 88.7256 123.168 89.1576 123.568C89.6056 123.952 90.1416 124.144 90.7656 124.144C91.4856 124.144 92.0376 123.96 92.4216 123.592C92.8216 123.224 93.0216 122.704 93.0216 122.032C93.0216 121.36 92.8216 120.84 92.4216 120.472C92.0376 120.104 91.4856 119.92 90.7656 119.92Z" fill="#D48C00"/>
<path d="M111.982 21.854C111.957 21.1429 111.909 20.4413 111.842 19.7492C111.776 19.0603 111.69 18.3778 111.582 17.7111C111.42 16.7079 111.214 15.7333 110.957 14.7905C110.785 14.1619 110.592 13.546 110.376 12.946C110.16 12.346 109.922 11.7619 109.658 11.1937C109.395 10.6254 109.109 10.0762 108.798 9.54286C108.642 9.27619 108.48 9.0127 108.315 8.75873C107.979 8.24444 107.62 7.74921 107.236 7.27302C106.849 6.79683 106.439 6.33968 106.001 5.90476C105.757 5.66349 105.506 5.43175 105.252 5.20635C105.169 5.13333 105.084 5.06349 104.998 4.99048C104.82 4.84127 104.642 4.69206 104.461 4.54921C104.36 4.46984 104.258 4.39365 104.153 4.31746C103.979 4.1873 103.804 4.06032 103.623 3.93651C103.515 3.86349 103.407 3.7873 103.3 3.71746C103.109 3.59365 102.919 3.47302 102.725 3.35556C102.623 3.29524 102.525 3.23175 102.423 3.1746C102.144 3.0127 101.865 2.85714 101.576 2.70794C101.522 2.67936 101.468 2.65397 101.414 2.6254C101.147 2.48889 100.874 2.3619 100.598 2.2381C100.48 2.18413 100.36 2.13333 100.239 2.08254C100.036 1.99683 99.836 1.91111 99.6297 1.83175C99.4932 1.77778 99.3566 1.72698 99.2201 1.67619C99.0233 1.60317 98.8233 1.53333 98.6233 1.46667C98.4836 1.41905 98.3408 1.37143 98.1979 1.32698C97.9884 1.26032 97.7725 1.19683 97.5566 1.13651C97.4265 1.09841 97.2963 1.06032 97.163 1.02222C96.8519 0.939682 96.5376 0.860317 96.2201 0.787301C96.1186 0.761905 96.0138 0.742857 95.9122 0.720634C95.6265 0.657142 95.3408 0.6 95.0519 0.546032C94.909 0.520635 94.7662 0.498413 94.6233 0.473016C94.3947 0.434921 94.1662 0.396825 93.9376 0.361905C93.782 0.339682 93.6297 0.320634 93.4741 0.298412C93.2455 0.266666 93.017 0.24127 92.7884 0.215873C92.636 0.2 92.4805 0.180952 92.3281 0.168254C92.0773 0.142857 91.8265 0.12381 91.5757 0.104762C91.4392 0.0952381 91.3059 0.0825395 91.1725 0.0730157C90.7884 0.0476189 90.4011 0.0285713 90.0106 0.0190475C89.963 0.0158728 89.9154 0.0158728 89.8646 0.0158728C89.5154 0.00634896 89.163 0 88.8074 0C88.6963 0 88.5884 0.00317468 88.4773 0.00317468C88.1154 0.00634928 87.7503 0.0126983 87.3852 0.0222221C87.2646 0.0253967 87.1439 0.028571 87.0233 0.0349202C86.0963 0.0698409 85.1566 0.136508 84.2074 0.228571C84.0932 0.24127 83.9757 0.250794 83.8614 0.263492C83.4519 0.304762 83.0424 0.352381 82.6297 0.406349C82.5566 0.415873 82.4836 0.425396 82.4106 0.431746C81.9217 0.495238 81.4328 0.565079 80.9408 0.644444C80.8614 0.657142 80.7852 0.669841 80.7059 0.68254C80.2836 0.749206 79.8582 0.825397 79.4328 0.901587C79.3344 0.920635 79.236 0.936508 79.1344 0.955556C78.1408 1.14286 77.1408 1.35556 76.1376 1.59365C76.0455 1.61587 75.9503 1.6381 75.8582 1.66032C75.4011 1.77143 74.9471 1.88254 74.49 2.00317C74.4424 2.01587 74.3947 2.02857 74.3503 2.0381C73.836 2.1746 73.3217 2.31429 72.8074 2.46349C72.7535 2.47937 72.6995 2.49524 72.6455 2.51111C72.1884 2.64444 71.7313 2.78095 71.2773 2.92063C71.1947 2.94603 71.1122 2.97143 71.0297 2.99683C70.0201 3.31429 69.0106 3.65079 68.0106 4.00952C67.9281 4.0381 67.8455 4.06984 67.763 4.09841C67.3027 4.26349 66.8424 4.43492 66.382 4.60952C66.3439 4.6254 66.3059 4.63809 66.2678 4.65079C65.7598 4.84444 65.2551 5.04444 64.7535 5.24762C64.7059 5.26667 64.6551 5.28889 64.6074 5.30794C64.163 5.48889 63.7217 5.67302 63.2805 5.86032C63.1979 5.89524 63.1186 5.93016 63.036 5.96508C62.0678 6.38095 61.109 6.81587 60.163 7.26349C60.0773 7.30476 59.9947 7.34286 59.909 7.38413C59.4868 7.5873 59.0678 7.79048 58.6519 8C58.6043 8.0254 58.5503 8.05079 58.5027 8.07302C58.036 8.30794 57.5725 8.54603 57.1154 8.7873C57.0551 8.81905 56.9979 8.85079 56.9376 8.87937C56.5439 9.08889 56.1535 9.29841 55.7662 9.51111C55.6773 9.55873 55.5884 9.60952 55.4995 9.65714C54.6233 10.1429 53.7662 10.6381 52.9312 11.146C52.8392 11.2 52.7471 11.2571 52.6551 11.3143C52.3027 11.5302 51.9535 11.746 51.6074 11.9651C51.5408 12.0063 51.4741 12.0476 51.4074 12.0921C51.0074 12.3492 50.6106 12.6095 50.2201 12.8698C50.1503 12.9175 50.0805 12.9651 50.0074 13.0127C49.6868 13.2286 49.3693 13.4476 49.0582 13.6667C48.963 13.7333 48.8709 13.7968 48.7789 13.8635C48.0392 14.3873 47.3217 14.9206 46.636 15.4571C46.5439 15.5302 46.4551 15.6 46.363 15.673C46.0868 15.8921 45.817 16.1079 45.5503 16.327C45.4805 16.3841 45.4106 16.4413 45.3439 16.4984C45.0233 16.7651 44.709 17.0349 44.4011 17.3048C44.3312 17.3651 44.2646 17.4254 44.1979 17.4857C43.9535 17.7016 43.7154 17.9206 43.4805 18.1365C43.3979 18.2127 43.3186 18.2889 43.236 18.3651C42.9471 18.6381 42.6646 18.9111 42.3916 19.1841C41.5217 20.0571 40.7059 20.9683 39.9471 21.9048C39.1852 22.8413 38.4805 23.8095 37.8297 24.8C37.1789 25.7937 36.582 26.8095 36.0392 27.8476C35.7662 28.3683 35.509 28.8921 35.2678 29.419C34.7789 30.4794 34.3471 31.5556 33.9693 32.6476C33.4011 34.2857 32.9566 35.9587 32.6328 37.6476C32.417 38.7746 32.2582 39.9079 32.1535 41.0476C31.9947 42.7556 31.9598 44.473 32.0455 46.1873C32.1027 47.3302 32.2138 48.4698 32.382 49.6C32.5471 50.7333 32.7693 51.8603 33.0455 52.9746C33.4582 54.6476 33.9947 56.2984 34.6519 57.9079C36.4074 62.2032 39.036 66.2254 42.5312 69.7048C42.9693 70.1397 43.4138 70.5587 43.8646 70.9683C43.9884 71.0794 44.1186 71.181 44.2455 71.2921C44.5789 71.581 44.909 71.873 45.2487 72.1492C45.3916 72.2667 45.5408 72.3714 45.6836 72.4857C46.0106 72.7429 46.3376 73.0032 46.6741 73.2476C46.8265 73.3587 46.982 73.4603 47.1344 73.5683C47.4678 73.8032 47.8011 74.0413 48.1408 74.2635C48.29 74.3619 48.4455 74.454 48.5979 74.5492C48.9439 74.7683 49.29 74.9937 49.6455 75.2C49.8043 75.2921 49.9693 75.3778 50.1281 75.4667C50.4805 75.6667 50.8297 75.8667 51.1852 76.0508C51.3566 76.1397 51.5312 76.2191 51.7027 76.3048C52.0519 76.4794 52.4011 76.6603 52.7566 76.8222C52.9376 76.9048 53.1249 76.981 53.3059 77.0603C53.6551 77.2159 54.0011 77.3714 54.3535 77.5143C54.5503 77.5937 54.7503 77.6603 54.9471 77.7365C55.29 77.8667 55.6328 78.0032 55.9757 78.1206C56.1852 78.1937 56.3947 78.254 56.6043 78.3238C56.9439 78.4349 57.2805 78.5492 57.6201 78.6476C57.8424 78.7143 58.0646 78.7683 58.2868 78.8286C58.617 78.9206 58.9503 79.0127 59.2836 79.0952C59.5217 79.1524 59.7598 79.2 59.9947 79.2508C60.3186 79.3206 60.6392 79.3968 60.963 79.4603C61.2138 79.5079 61.4678 79.546 61.7217 79.5873C62.0328 79.6413 62.3408 79.6984 62.6519 79.7429C62.9185 79.781 63.1852 79.8064 63.4519 79.8381C63.7535 79.8762 64.0519 79.9143 64.3503 79.9429C64.6233 79.9683 64.8963 79.981 65.1725 80C65.4678 80.0222 65.763 80.0476 66.0582 80.0603C66.3344 80.073 66.6106 80.073 66.89 80.0794C67.182 80.0857 67.4773 80.0984 67.7693 80.0984C68.0678 80.0984 68.3662 80.0857 68.6678 80.0762C68.9408 80.0698 69.2138 80.0667 69.4868 80.054C69.7884 80.0381 70.09 80.0127 70.3916 79.9905C70.6614 79.9714 70.9312 79.9556 71.2011 79.9302C71.509 79.8984 71.817 79.8571 72.1217 79.8191C72.382 79.7873 72.6455 79.7619 72.9059 79.7238C73.2265 79.6762 73.5439 79.6159 73.8646 79.5619C74.109 79.5206 74.3566 79.4825 74.6011 79.4349C74.9313 79.3683 75.2614 79.2921 75.5884 79.219C75.8201 79.1651 76.0519 79.1206 76.2836 79.0667C76.6233 78.9841 76.9566 78.8857 77.2932 78.7937C77.5122 78.7333 77.7313 78.6794 77.9503 78.6127C78.2932 78.5111 78.6328 78.3937 78.9725 78.2825C79.182 78.2127 79.3916 78.1524 79.6011 78.0762C79.9471 77.9556 80.29 77.8191 80.636 77.6857C80.8328 77.6095 81.0328 77.5397 81.2297 77.4603C81.582 77.3175 81.9281 77.1587 82.2773 77.0032C82.4614 76.9206 82.6487 76.8444 82.8328 76.7619C83.1884 76.5968 83.5376 76.4159 83.89 76.2381C84.0614 76.1492 84.236 76.0698 84.4043 75.981C84.7535 75.7968 85.0963 75.5968 85.4392 75.4C85.6074 75.3048 85.7789 75.2159 85.9439 75.1175C86.29 74.9111 86.6297 74.6921 86.9693 74.473C87.1281 74.3714 87.29 74.2762 87.4487 74.1714C87.7884 73.946 88.1217 73.7048 88.4551 73.4667C88.6074 73.3556 88.7662 73.254 88.9154 73.1429C89.2424 72.9016 89.563 72.6444 89.8836 72.3905C90.036 72.2698 90.1916 72.1556 90.3408 72.0317C90.6836 71.7524 91.017 71.4571 91.3503 71.1619C91.4741 71.054 91.6011 70.9524 91.7217 70.8413C92.1725 70.4317 92.617 70.0064 93.0551 69.5683C93.7059 68.9111 94.3566 68.2095 95.0043 67.4603C95.436 66.9619 95.8614 66.4444 96.29 65.9111C98.8424 62.7016 101.29 58.8444 103.465 54.6286C103.826 53.927 104.182 53.2127 104.528 52.4921C106.087 49.2476 107.474 45.8286 108.617 42.3587C108.998 41.2 109.353 40.0381 109.677 38.873C110.109 37.3206 110.49 35.7651 110.807 34.219C110.969 33.4444 111.112 32.673 111.242 31.9048C111.306 31.5206 111.366 31.1365 111.423 30.7556C111.763 28.4603 111.963 26.2032 111.995 24.019C112.001 23.654 112.001 23.2921 111.998 22.9333C112.004 22.5683 111.995 22.2095 111.982 21.854ZM105.233 36.4603C102.293 47.7206 96.0011 59.6286 89.5757 66.0921C83.7503 71.9492 75.9947 75.1746 67.7344 75.1746C59.5408 75.1746 51.8265 71.9937 46.017 66.2159C33.9757 54.2413 33.9217 34.6984 45.8963 22.6571C50.2868 18.2413 57.2805 13.7905 65.0805 10.4476C73.3916 6.88254 81.782 4.92064 88.7027 4.92064C94.8868 4.92064 99.5376 6.42857 102.528 9.4C107.458 14.2952 108.446 24.1619 105.233 36.4603Z" fill="#D48C00"/>
<path d="M102.531 9.39367C99.5439 6.42224 94.89 4.91431 88.7058 4.91431C81.7852 4.91431 73.3947 6.87621 65.0836 10.4413C57.2804 13.7873 50.29 18.2381 45.8963 22.654C33.9217 34.6953 33.9757 54.2349 46.017 66.2127C51.8265 71.9905 59.5408 75.1714 67.7344 75.1714C75.9947 75.1714 83.7503 71.946 89.5725 66.0889C95.9979 59.6254 102.293 47.7175 105.233 36.4572C108.442 24.1587 107.458 14.2953 102.531 9.39367ZM67.5852 63.5937C56.9693 63.5937 48.363 54.9873 48.363 44.3714C48.363 33.7556 56.9693 25.1492 67.5852 25.1492C78.2011 25.1492 86.8074 33.7556 86.8074 44.3714C86.8074 54.9873 78.2011 63.5937 67.5852 63.5937Z" fill="#FFDD28"/>
<path d="M67.5852 25.1524C56.9694 25.1524 48.363 33.7588 48.363 44.3746C48.363 54.9905 56.9694 63.5969 67.5852 63.5969C78.2011 63.5969 86.8074 54.9905 86.8074 44.3746C86.8074 33.7588 78.2011 25.1524 67.5852 25.1524Z" fill="#FEE5C4"/>
<rect x="1.5" y="29.5" width="132" height="109" rx="16.5" fill="white" stroke="#D48C00" stroke-width="3"/>
<path d="M111.982 21.854C111.957 21.1429 111.909 20.4413 111.842 19.7492C111.776 19.0603 111.69 18.3778 111.582 17.7111C111.42 16.7079 111.214 15.7333 110.957 14.7905C110.785 14.1619 110.592 13.546 110.376 12.946C110.16 12.346 109.922 11.7619 109.658 11.1937C109.395 10.6254 109.109 10.0762 108.798 9.54286C108.642 9.27619 108.48 9.0127 108.315 8.75873C107.979 8.24444 107.62 7.74921 107.236 7.27302C106.849 6.79683 106.439 6.33968 106.001 5.90476C105.757 5.66349 105.506 5.43175 105.252 5.20635C105.169 5.13333 105.084 5.06349 104.998 4.99048C104.82 4.84127 104.642 4.69206 104.461 4.54921C104.36 4.46984 104.258 4.39365 104.153 4.31746C103.979 4.1873 103.804 4.06032 103.623 3.93651C103.515 3.86349 103.407 3.7873 103.3 3.71746C103.109 3.59365 102.919 3.47302 102.725 3.35556C102.623 3.29524 102.525 3.23175 102.423 3.1746C102.144 3.0127 101.865 2.85714 101.576 2.70794C101.522 2.67936 101.468 2.65397 101.414 2.6254C101.147 2.48889 100.874 2.3619 100.598 2.2381C100.48 2.18413 100.36 2.13333 100.239 2.08254C100.036 1.99683 99.836 1.91111 99.6297 1.83175C99.4932 1.77778 99.3566 1.72698 99.2201 1.67619C99.0233 1.60317 98.8233 1.53333 98.6233 1.46667C98.4836 1.41905 98.3408 1.37143 98.1979 1.32698C97.9884 1.26032 97.7725 1.19683 97.5566 1.13651C97.4265 1.09841 97.2963 1.06032 97.163 1.02222C96.8519 0.939682 96.5376 0.860317 96.2201 0.787301C96.1186 0.761905 96.0138 0.742857 95.9122 0.720634C95.6265 0.657142 95.3408 0.6 95.0519 0.546032C94.909 0.520635 94.7662 0.498413 94.6233 0.473016C94.3947 0.434921 94.1662 0.396825 93.9376 0.361905C93.782 0.339682 93.6297 0.320634 93.4741 0.298412C93.2455 0.266666 93.017 0.24127 92.7884 0.215873C92.636 0.2 92.4805 0.180952 92.3281 0.168254C92.0773 0.142857 91.8265 0.12381 91.5757 0.104762C91.4392 0.0952381 91.3059 0.0825395 91.1725 0.0730157C90.7884 0.0476189 90.4011 0.0285713 90.0106 0.0190475C89.963 0.0158728 89.9154 0.0158728 89.8646 0.0158728C89.5154 0.00634896 89.163 0 88.8074 0C88.6963 0 88.5884 0.00317468 88.4773 0.00317468C88.1154 0.00634928 87.7503 0.0126983 87.3852 0.0222221C87.2646 0.0253967 87.1439 0.028571 87.0233 0.0349202C86.0963 0.0698409 85.1566 0.136508 84.2074 0.228571C84.0932 0.24127 83.9757 0.250794 83.8614 0.263492C83.4519 0.304762 83.0424 0.352381 82.6297 0.406349C82.5566 0.415873 82.4836 0.425396 82.4106 0.431746C81.9217 0.495238 81.4328 0.565079 80.9408 0.644444C80.8614 0.657142 80.7852 0.669841 80.7059 0.68254C80.2836 0.749206 79.8582 0.825397 79.4328 0.901587C79.3344 0.920635 79.236 0.936508 79.1344 0.955556C78.1408 1.14286 77.1408 1.35556 76.1376 1.59365C76.0455 1.61587 75.9503 1.6381 75.8582 1.66032C75.4011 1.77143 74.9471 1.88254 74.49 2.00317C74.4424 2.01587 74.3947 2.02857 74.3503 2.0381C73.836 2.1746 73.3217 2.31429 72.8074 2.46349C72.7535 2.47937 72.6995 2.49524 72.6455 2.51111C72.1884 2.64444 71.7313 2.78095 71.2773 2.92063C71.1947 2.94603 71.1122 2.97143 71.0297 2.99683C70.0201 3.31429 69.0106 3.65079 68.0106 4.00952C67.9281 4.0381 67.8455 4.06984 67.763 4.09841C67.3027 4.26349 66.8424 4.43492 66.382 4.60952C66.3439 4.6254 66.3059 4.63809 66.2678 4.65079C65.7598 4.84444 65.2551 5.04444 64.7535 5.24762C64.7059 5.26667 64.6551 5.28889 64.6074 5.30794C64.163 5.48889 63.7217 5.67302 63.2805 5.86032C63.1979 5.89524 63.1186 5.93016 63.036 5.96508C62.0678 6.38095 61.109 6.81587 60.163 7.26349C60.0773 7.30476 59.9947 7.34286 59.909 7.38413C59.4868 7.5873 59.0678 7.79048 58.6519 8C58.6043 8.0254 58.5503 8.05079 58.5027 8.07302C58.036 8.30794 57.5725 8.54603 57.1154 8.7873C57.0551 8.81905 56.9979 8.85079 56.9376 8.87937C56.5439 9.08889 56.1535 9.29841 55.7662 9.51111C55.6773 9.55873 55.5884 9.60952 55.4995 9.65714C54.6233 10.1429 53.7662 10.6381 52.9312 11.146C52.8392 11.2 52.7471 11.2571 52.6551 11.3143C52.3027 11.5302 51.9535 11.746 51.6074 11.9651C51.5408 12.0063 51.4741 12.0476 51.4074 12.0921C51.0074 12.3492 50.6106 12.6095 50.2201 12.8698C50.1503 12.9175 50.0805 12.9651 50.0074 13.0127C49.6868 13.2286 49.3693 13.4476 49.0582 13.6667C48.963 13.7333 48.8709 13.7968 48.7789 13.8635C48.0392 14.3873 47.3217 14.9206 46.636 15.4571C46.5439 15.5302 46.4551 15.6 46.363 15.673C46.0868 15.8921 45.817 16.1079 45.5503 16.327C45.4805 16.3841 45.4106 16.4413 45.3439 16.4984C45.0233 16.7651 44.709 17.0349 44.4011 17.3048C44.3312 17.3651 44.2646 17.4254 44.1979 17.4857C43.9535 17.7016 43.7154 17.9206 43.4805 18.1365C43.3979 18.2127 43.3186 18.2889 43.236 18.3651C42.9471 18.6381 42.6646 18.9111 42.3916 19.1841C41.5217 20.0571 40.7059 20.9683 39.9471 21.9048C39.1852 22.8413 38.4805 23.8095 37.8297 24.8C37.1789 25.7937 36.582 26.8095 36.0392 27.8476C35.7662 28.3683 35.509 28.8921 35.2678 29.419C34.7789 30.4794 34.3471 31.5556 33.9693 32.6476C33.4011 34.2857 32.9566 35.9587 32.6328 37.6476C32.417 38.7746 32.2582 39.9079 32.1535 41.0476C31.9947 42.7556 31.9598 44.473 32.0455 46.1873C32.1027 47.3302 32.2138 48.4698 32.382 49.6C32.5471 50.7333 32.7693 51.8603 33.0455 52.9746C33.4582 54.6476 33.9947 56.2984 34.6519 57.9079C36.4074 62.2032 39.036 66.2254 42.5312 69.7048C42.9693 70.1397 43.4138 70.5587 43.8646 70.9683C43.9884 71.0794 44.1186 71.181 44.2455 71.2921C44.5789 71.581 44.909 71.873 45.2487 72.1492C45.3916 72.2667 45.5408 72.3714 45.6836 72.4857C46.0106 72.7429 46.3376 73.0032 46.6741 73.2476C46.8265 73.3587 46.982 73.4603 47.1344 73.5683C47.4678 73.8032 47.8011 74.0413 48.1408 74.2635C48.29 74.3619 48.4455 74.454 48.5979 74.5492C48.9439 74.7683 49.29 74.9937 49.6455 75.2C49.8043 75.2921 49.9693 75.3778 50.1281 75.4667C50.4805 75.6667 50.8297 75.8667 51.1852 76.0508C51.3566 76.1397 51.5312 76.2191 51.7027 76.3048C52.0519 76.4794 52.4011 76.6603 52.7566 76.8222C52.9376 76.9048 53.1249 76.981 53.3059 77.0603C53.6551 77.2159 54.0011 77.3714 54.3535 77.5143C54.5503 77.5937 54.7503 77.6603 54.9471 77.7365C55.29 77.8667 55.6328 78.0032 55.9757 78.1206C56.1852 78.1937 56.3947 78.254 56.6043 78.3238C56.9439 78.4349 57.2805 78.5492 57.6201 78.6476C57.8424 78.7143 58.0646 78.7683 58.2868 78.8286C58.617 78.9206 58.9503 79.0127 59.2836 79.0952C59.5217 79.1524 59.7598 79.2 59.9947 79.2508C60.3186 79.3206 60.6392 79.3968 60.963 79.4603C61.2138 79.5079 61.4678 79.546 61.7217 79.5873C62.0328 79.6413 62.3408 79.6984 62.6519 79.7429C62.9185 79.781 63.1852 79.8064 63.4519 79.8381C63.7535 79.8762 64.0519 79.9143 64.3503 79.9429C64.6233 79.9683 64.8963 79.981 65.1725 80C65.4678 80.0222 65.763 80.0476 66.0582 80.0603C66.3344 80.073 66.6106 80.073 66.89 80.0794C67.182 80.0857 67.4773 80.0984 67.7693 80.0984C68.0678 80.0984 68.3662 80.0857 68.6678 80.0762C68.9408 80.0698 69.2138 80.0667 69.4868 80.054C69.7884 80.0381 70.09 80.0127 70.3916 79.9905C70.6614 79.9714 70.9312 79.9556 71.2011 79.9302C71.509 79.8984 71.817 79.8571 72.1217 79.8191C72.382 79.7873 72.6455 79.7619 72.9059 79.7238C73.2265 79.6762 73.5439 79.6159 73.8646 79.5619C74.109 79.5206 74.3566 79.4825 74.6011 79.4349C74.9313 79.3683 75.2614 79.2921 75.5884 79.219C75.8201 79.1651 76.0519 79.1206 76.2836 79.0667C76.6233 78.9841 76.9566 78.8857 77.2932 78.7937C77.5122 78.7333 77.7313 78.6794 77.9503 78.6127C78.2932 78.5111 78.6328 78.3937 78.9725 78.2825C79.182 78.2127 79.3916 78.1524 79.6011 78.0762C79.9471 77.9556 80.29 77.8191 80.636 77.6857C80.8328 77.6095 81.0328 77.5397 81.2297 77.4603C81.582 77.3175 81.9281 77.1587 82.2773 77.0032C82.4614 76.9206 82.6487 76.8444 82.8328 76.7619C83.1884 76.5968 83.5376 76.4159 83.89 76.2381C84.0614 76.1492 84.236 76.0698 84.4043 75.981C84.7535 75.7968 85.0963 75.5968 85.4392 75.4C85.6074 75.3048 85.7789 75.2159 85.9439 75.1175C86.29 74.9111 86.6297 74.6921 86.9693 74.473C87.1281 74.3714 87.29 74.2762 87.4487 74.1714C87.7884 73.946 88.1217 73.7048 88.4551 73.4667C88.6074 73.3556 88.7662 73.254 88.9154 73.1429C89.2424 72.9016 89.563 72.6444 89.8836 72.3905C90.036 72.2698 90.1916 72.1556 90.3408 72.0317C90.6836 71.7524 91.017 71.4571 91.3503 71.1619C91.4741 71.054 91.6011 70.9524 91.7217 70.8413C92.1725 70.4317 92.617 70.0064 93.0551 69.5683C93.7059 68.9111 94.3566 68.2095 95.0043 67.4603C95.436 66.9619 95.8614 66.4444 96.29 65.9111C98.8424 62.7016 101.29 58.8444 103.465 54.6286C103.826 53.927 104.182 53.2127 104.528 52.4921C106.087 49.2476 107.474 45.8286 108.617 42.3587C108.998 41.2 109.353 40.0381 109.677 38.873C110.109 37.3206 110.49 35.7651 110.807 34.219C110.969 33.4444 111.112 32.673 111.242 31.9048C111.306 31.5206 111.366 31.1365 111.423 30.7556C111.763 28.4603 111.963 26.2032 111.995 24.019C112.001 23.654 112.001 23.2921 111.998 22.9333C112.004 22.5683 111.995 22.2095 111.982 21.854ZM105.233 36.4603C102.293 47.7206 96.0011 59.6286 89.5757 66.0921C83.7503 71.9492 75.9947 75.1746 67.7344 75.1746C59.5408 75.1746 51.8265 71.9937 46.017 66.2159C33.9757 54.2413 33.9217 34.6984 45.8963 22.6571C50.2868 18.2413 57.2805 13.7905 65.0805 10.4476C73.3916 6.88254 81.782 4.92064 88.7027 4.92064C94.8868 4.92064 99.5376 6.42857 102.528 9.4C107.458 14.2952 108.446 24.1619 105.233 36.4603Z" fill="#D48C00"/>
<path d="M102.531 9.39367C99.5439 6.42224 94.89 4.91431 88.7058 4.91431C81.7852 4.91431 73.3947 6.87621 65.0836 10.4413C57.2804 13.7873 50.29 18.2381 45.8963 22.654C33.9217 34.6953 33.9757 54.2349 46.017 66.2127C51.8265 71.9905 59.5408 75.1714 67.7344 75.1714C75.9947 75.1714 83.7503 71.946 89.5725 66.0889C95.9979 59.6254 102.293 47.7175 105.233 36.4572C108.442 24.1587 107.458 14.2953 102.531 9.39367ZM67.5852 63.5937C56.9693 63.5937 48.363 54.9873 48.363 44.3714C48.363 33.7556 56.9693 25.1492 67.5852 25.1492C78.2011 25.1492 86.8074 33.7556 86.8074 44.3714C86.8074 54.9873 78.2011 63.5937 67.5852 63.5937Z" fill="#FFDD28"/>
<path d="M67.5852 25.1524C56.9694 25.1524 48.363 33.7588 48.363 44.3746C48.363 54.9905 56.9694 63.5969 67.5852 63.5969C78.2011 63.5969 86.8074 54.9905 86.8074 44.3746C86.8074 33.7588 78.2011 25.1524 67.5852 25.1524Z" fill="#FEE5C4"/>
</svg>
