<svg width="167" height="115" viewBox="0 0 167 115" fill="none" xmlns="http://www.w3.org/2000/svg">
<rect x="1.5" y="28.5" width="164" height="85" rx="16.5" fill="white" stroke="#FF555A" stroke-width="3"/>
<path d="M127.982 21.854C127.957 21.1429 127.909 20.4413 127.842 19.7492C127.776 19.0603 127.69 18.3778 127.582 17.7111C127.42 16.7079 127.214 15.7333 126.957 14.7905C126.785 14.1619 126.592 13.546 126.376 12.946C126.16 12.346 125.922 11.7619 125.658 11.1937C125.395 10.6254 125.109 10.0762 124.798 9.54286C124.642 9.27619 124.48 9.0127 124.315 8.75873C123.979 8.24444 123.62 7.74921 123.236 7.27302C122.849 6.79683 122.439 6.33968 122.001 5.90476C121.757 5.66349 121.506 5.43175 121.252 5.20635C121.169 5.13333 121.084 5.06349 120.998 4.99048C120.82 4.84127 120.642 4.69206 120.461 4.54921C120.36 4.46984 120.258 4.39365 120.153 4.31746C119.979 4.1873 119.804 4.06032 119.623 3.93651C119.515 3.86349 119.407 3.7873 119.3 3.71746C119.109 3.59365 118.919 3.47302 118.725 3.35556C118.623 3.29524 118.525 3.23175 118.423 3.1746C118.144 3.0127 117.865 2.85714 117.576 2.70794C117.522 2.67936 117.468 2.65397 117.414 2.6254C117.147 2.48889 116.874 2.3619 116.598 2.2381C116.48 2.18413 116.36 2.13333 116.239 2.08254C116.036 1.99683 115.836 1.91111 115.63 1.83175C115.493 1.77778 115.357 1.72698 115.22 1.67619C115.023 1.60317 114.823 1.53333 114.623 1.46667C114.484 1.41905 114.341 1.37143 114.198 1.32698C113.988 1.26032 113.773 1.19683 113.557 1.13651C113.426 1.09841 113.296 1.06032 113.163 1.02222C112.852 0.939682 112.538 0.860317 112.22 0.787301C112.119 0.761905 112.014 0.742857 111.912 0.720634C111.626 0.657142 111.341 0.6 111.052 0.546032C110.909 0.520635 110.766 0.498413 110.623 0.473016C110.395 0.434921 110.166 0.396825 109.938 0.361905C109.782 0.339682 109.63 0.320634 109.474 0.298412C109.246 0.266666 109.017 0.24127 108.788 0.215873C108.636 0.2 108.48 0.180952 108.328 0.168254C108.077 0.142857 107.826 0.12381 107.576 0.104762C107.439 0.0952381 107.306 0.0825395 107.173 0.0730157C106.788 0.0476189 106.401 0.0285713 106.011 0.0190475C105.963 0.0158728 105.915 0.0158728 105.865 0.0158728C105.515 0.00634896 105.163 0 104.807 0C104.696 0 104.588 0.00317468 104.477 0.00317468C104.115 0.00634928 103.75 0.0126983 103.385 0.0222221C103.265 0.0253967 103.144 0.028571 103.023 0.0349202C102.096 0.0698409 101.157 0.136508 100.207 0.228571C100.093 0.24127 99.9757 0.250794 99.8614 0.263492C99.4519 0.304762 99.0424 0.352381 98.6297 0.406349C98.5566 0.415873 98.4836 0.425396 98.4106 0.431746C97.9217 0.495238 97.4328 0.565079 96.9408 0.644444C96.8614 0.657142 96.7852 0.669841 96.7059 0.68254C96.2836 0.749206 95.8582 0.825397 95.4328 0.901587C95.3344 0.920635 95.236 0.936508 95.1344 0.955556C94.1408 1.14286 93.1408 1.35556 92.1376 1.59365C92.0455 1.61587 91.9503 1.6381 91.8582 1.66032C91.4011 1.77143 90.9471 1.88254 90.49 2.00317C90.4424 2.01587 90.3947 2.02857 90.3503 2.0381C89.836 2.1746 89.3217 2.31429 88.8074 2.46349C88.7535 2.47937 88.6995 2.49524 88.6455 2.51111C88.1884 2.64444 87.7313 2.78095 87.2773 2.92063C87.1947 2.94603 87.1122 2.97143 87.0297 2.99683C86.0201 3.31429 85.0106 3.65079 84.0106 4.00952C83.9281 4.0381 83.8455 4.06984 83.763 4.09841C83.3027 4.26349 82.8424 4.43492 82.382 4.60952C82.3439 4.6254 82.3059 4.63809 82.2678 4.65079C81.7598 4.84444 81.2551 5.04444 80.7535 5.24762C80.7059 5.26667 80.6551 5.28889 80.6074 5.30794C80.163 5.48889 79.7217 5.67302 79.2805 5.86032C79.1979 5.89524 79.1186 5.93016 79.036 5.96508C78.0678 6.38095 77.109 6.81587 76.163 7.26349C76.0773 7.30476 75.9947 7.34286 75.909 7.38413C75.4868 7.5873 75.0678 7.79048 74.6519 8C74.6043 8.0254 74.5503 8.05079 74.5027 8.07302C74.036 8.30794 73.5725 8.54603 73.1154 8.7873C73.0551 8.81905 72.9979 8.85079 72.9376 8.87937C72.5439 9.08889 72.1535 9.29841 71.7662 9.51111C71.6773 9.55873 71.5884 9.60952 71.4995 9.65714C70.6233 10.1429 69.7662 10.6381 68.9312 11.146C68.8392 11.2 68.7471 11.2571 68.6551 11.3143C68.3027 11.5302 67.9535 11.746 67.6074 11.9651C67.5408 12.0063 67.4741 12.0476 67.4074 12.0921C67.0074 12.3492 66.6106 12.6095 66.2201 12.8698C66.1503 12.9175 66.0805 12.9651 66.0074 13.0127C65.6868 13.2286 65.3693 13.4476 65.0582 13.6667C64.963 13.7333 64.8709 13.7968 64.7789 13.8635C64.0392 14.3873 63.3217 14.9206 62.636 15.4571C62.5439 15.5302 62.4551 15.6 62.363 15.673C62.0868 15.8921 61.817 16.1079 61.5503 16.327C61.4805 16.3841 61.4106 16.4413 61.3439 16.4984C61.0233 16.7651 60.709 17.0349 60.4011 17.3048C60.3312 17.3651 60.2646 17.4254 60.1979 17.4857C59.9535 17.7016 59.7154 17.9206 59.4805 18.1365C59.3979 18.2127 59.3186 18.2889 59.236 18.3651C58.9471 18.6381 58.6646 18.9111 58.3916 19.1841C57.5217 20.0571 56.7059 20.9683 55.9471 21.9048C55.1852 22.8413 54.4805 23.8095 53.8297 24.8C53.1789 25.7937 52.582 26.8095 52.0392 27.8476C51.7662 28.3683 51.509 28.8921 51.2678 29.419C50.7789 30.4794 50.3471 31.5556 49.9693 32.6476C49.4011 34.2857 48.9566 35.9587 48.6328 37.6476C48.417 38.7746 48.2582 39.9079 48.1535 41.0476C47.9947 42.7556 47.9598 44.473 48.0455 46.1873C48.1027 47.3302 48.2138 48.4698 48.382 49.6C48.5471 50.7333 48.7693 51.8603 49.0455 52.9746C49.4582 54.6476 49.9947 56.2984 50.6519 57.9079C52.4074 62.2032 55.036 66.2254 58.5312 69.7048C58.9693 70.1397 59.4138 70.5587 59.8646 70.9683C59.9884 71.0794 60.1186 71.181 60.2455 71.2921C60.5789 71.581 60.909 71.873 61.2487 72.1492C61.3916 72.2667 61.5408 72.3714 61.6836 72.4857C62.0106 72.7429 62.3376 73.0032 62.6741 73.2476C62.8265 73.3587 62.982 73.4603 63.1344 73.5683C63.4678 73.8032 63.8011 74.0413 64.1408 74.2635C64.29 74.3619 64.4455 74.454 64.5979 74.5492C64.9439 74.7683 65.29 74.9937 65.6455 75.2C65.8043 75.2921 65.9693 75.3778 66.1281 75.4667C66.4805 75.6667 66.8297 75.8667 67.1852 76.0508C67.3566 76.1397 67.5312 76.2191 67.7027 76.3048C68.0519 76.4794 68.4011 76.6603 68.7566 76.8222C68.9376 76.9048 69.1249 76.981 69.3059 77.0603C69.6551 77.2159 70.0011 77.3714 70.3535 77.5143C70.5503 77.5937 70.7503 77.6603 70.9471 77.7365C71.29 77.8667 71.6328 78.0032 71.9757 78.1206C72.1852 78.1937 72.3947 78.254 72.6043 78.3238C72.9439 78.4349 73.2805 78.5492 73.6201 78.6476C73.8424 78.7143 74.0646 78.7683 74.2868 78.8286C74.617 78.9206 74.9503 79.0127 75.2836 79.0952C75.5217 79.1524 75.7598 79.2 75.9947 79.2508C76.3186 79.3206 76.6392 79.3968 76.963 79.4603C77.2138 79.5079 77.4678 79.546 77.7217 79.5873C78.0328 79.6413 78.3408 79.6984 78.6519 79.7429C78.9185 79.781 79.1852 79.8064 79.4519 79.8381C79.7535 79.8762 80.0519 79.9143 80.3503 79.9429C80.6233 79.9683 80.8963 79.981 81.1725 80C81.4678 80.0222 81.763 80.0476 82.0582 80.0603C82.3344 80.073 82.6106 80.073 82.89 80.0794C83.182 80.0857 83.4773 80.0984 83.7693 80.0984C84.0678 80.0984 84.3662 80.0857 84.6678 80.0762C84.9408 80.0698 85.2138 80.0667 85.4868 80.054C85.7884 80.0381 86.09 80.0127 86.3916 79.9905C86.6614 79.9714 86.9312 79.9556 87.2011 79.9302C87.509 79.8984 87.817 79.8571 88.1217 79.8191C88.382 79.7873 88.6455 79.7619 88.9059 79.7238C89.2265 79.6762 89.5439 79.6159 89.8646 79.5619C90.109 79.5206 90.3566 79.4825 90.6011 79.4349C90.9313 79.3683 91.2614 79.2921 91.5884 79.219C91.8201 79.1651 92.0519 79.1206 92.2836 79.0667C92.6233 78.9841 92.9566 78.8857 93.2932 78.7937C93.5122 78.7333 93.7313 78.6794 93.9503 78.6127C94.2932 78.5111 94.6328 78.3937 94.9725 78.2825C95.182 78.2127 95.3916 78.1524 95.6011 78.0762C95.9471 77.9556 96.29 77.8191 96.636 77.6857C96.8328 77.6095 97.0328 77.5397 97.2297 77.4603C97.582 77.3175 97.9281 77.1587 98.2773 77.0032C98.4614 76.9206 98.6487 76.8444 98.8328 76.7619C99.1884 76.5968 99.5376 76.4159 99.89 76.2381C100.061 76.1492 100.236 76.0698 100.404 75.981C100.753 75.7968 101.096 75.5968 101.439 75.4C101.607 75.3048 101.779 75.2159 101.944 75.1175C102.29 74.9111 102.63 74.6921 102.969 74.473C103.128 74.3714 103.29 74.2762 103.449 74.1714C103.788 73.946 104.122 73.7048 104.455 73.4667C104.607 73.3556 104.766 73.254 104.915 73.1429C105.242 72.9016 105.563 72.6444 105.884 72.3905C106.036 72.2698 106.192 72.1556 106.341 72.0317C106.684 71.7524 107.017 71.4571 107.35 71.1619C107.474 71.054 107.601 70.9524 107.722 70.8413C108.173 70.4317 108.617 70.0064 109.055 69.5683C109.706 68.9111 110.357 68.2095 111.004 67.4603C111.436 66.9619 111.861 66.4444 112.29 65.9111C114.842 62.7016 117.29 58.8444 119.465 54.6286C119.826 53.927 120.182 53.2127 120.528 52.4921C122.087 49.2476 123.474 45.8286 124.617 42.3587C124.998 41.2 125.353 40.0381 125.677 38.873C126.109 37.3206 126.49 35.7651 126.807 34.219C126.969 33.4444 127.112 32.673 127.242 31.9048C127.306 31.5206 127.366 31.1365 127.423 30.7556C127.763 28.4603 127.963 26.2032 127.995 24.019C128.001 23.654 128.001 23.2921 127.998 22.9333C128.004 22.5683 127.995 22.2095 127.982 21.854ZM121.233 36.4603C118.293 47.7206 112.001 59.6286 105.576 66.0921C99.7503 71.9492 91.9947 75.1746 83.7344 75.1746C75.5408 75.1746 67.8265 71.9937 62.017 66.2159C49.9757 54.2413 49.9217 34.6984 61.8963 22.6571C66.2868 18.2413 73.2805 13.7905 81.0805 10.4476C89.3916 6.88254 97.782 4.92064 104.703 4.92064C110.887 4.92064 115.538 6.42857 118.528 9.4C123.458 14.2952 124.446 24.1619 121.233 36.4603Z" fill="#FF555A"/>
<path d="M118.531 9.39367C115.544 6.42224 110.89 4.91431 104.706 4.91431C97.7852 4.91431 89.3947 6.87621 81.0836 10.4413C73.2804 13.7873 66.29 18.2381 61.8963 22.654C49.9217 34.6953 49.9757 54.2349 62.017 66.2127C67.8265 71.9905 75.5408 75.1714 83.7344 75.1714C91.9947 75.1714 99.7503 71.946 105.573 66.0889C111.998 59.6254 118.293 47.7175 121.233 36.4572C124.442 24.1587 123.458 14.2953 118.531 9.39367ZM83.5852 63.5937C72.9693 63.5937 64.363 54.9873 64.363 44.3714C64.363 33.7556 72.9693 25.1492 83.5852 25.1492C94.2011 25.1492 102.807 33.7556 102.807 44.3714C102.807 54.9873 94.2011 63.5937 83.5852 63.5937Z" fill="#F3B2A8"/>
<path d="M83.5853 25.1524C72.9694 25.1524 64.363 33.7588 64.363 44.3746C64.363 54.9905 72.9694 63.5969 83.5853 63.5969C94.2011 63.5969 102.807 54.9905 102.807 44.3746C102.807 33.7588 94.2011 25.1524 83.5853 25.1524Z" fill="#FEE5C4"/>
</svg>
